<svg id="Calque_1" data-name="Calque 1" xmlns="http://www.w3.org/2000/svg" viewBox="0 0 283.78 109.81"><defs><style>.cls-1{fill:#8d8383;}.cls-2{fill:none;}.cls-3,.cls-7{fill:#25995c;}.cls-3,.cls-4{fill-rule:evenodd;}.cls-4,.cls-6{fill:#80cc2a;}.cls-5{isolation:isolate;}</style></defs><title>LogoMonEImpact</title><rect class="cls-1" x="134.53" y="92.72" width="149.25" height="0.75"/><rect class="cls-2" x="134.53" y="92.72" width="149.25" height="0.75"/><path class="cls-3" d="M16.87,10.33c24.59,2.85,36.38,16,34.62,40.16a.25.25,0,0,0,.49.08c2-7.71,2.69-14.88,1.47-21.33C49.45,8,25,2.24,6.57,6.65A1.2,1.2,0,0,0,5.7,8.11a1.16,1.16,0,0,0,.3.54c12.38,12.74,6.87,42.77,41.85,33.68-3.24-17-12.71-28.44-31-32" transform="translate(-0.01 0)"/><rect class="cls-2" x="4.23" y="1.87" width="50.25" height="52.5" transform="translate(-2.08 53.9) rotate(-83.13)"/><rect class="cls-2" x="4.23" y="1.87" width="50.25" height="52.5" transform="translate(-2.08 53.9) rotate(-83.13)"/><rect class="cls-2" x="3.95" y="1.83" width="50.25" height="52.5" transform="matrix(0.12, -0.99, 0.99, 0.12, -2.29, 53.59)"/><path class="cls-4" d="M84.35,18C65.25,18,55,26.84,54.13,45.23a.19.19,0,0,1-.24.15.23.23,0,0,1-.15-.15c-.85-6-.68-11.49.85-16.25,5-15.72,24.31-17.78,38-12.81a.91.91,0,0,1,.55,1.16.84.84,0,0,1-.3.42c-10.67,8.5-9.21,31.7-35.17,21.64C61.73,26.83,70,19.05,84.36,18" transform="translate(-0.01 0)"/><rect class="cls-2" x="52.89" y="11.22" width="40.5" height="38.25"/><path class="cls-1" d="M52.93,109.33a31.52,31.52,0,0,0,13.6-59.81A3.36,3.36,0,0,0,62,51.08v0a3.41,3.41,0,0,0,1.58,4.53,24.48,24.48,0,1,1-21.36,0,3.4,3.4,0,0,0,1.57-4.53,3.36,3.36,0,0,0-4.46-1.61l0,0a31.52,31.52,0,0,0,13.6,59.81Z" transform="translate(-0.01 0)"/><path class="cls-1" d="M52.75,58.83A2.82,2.82,0,0,0,55.56,56h0V41.62A2.81,2.81,0,0,0,50,41.28a1.93,1.93,0,0,0,0,.34V56A2.82,2.82,0,0,0,52.75,58.83Z" transform="translate(-0.01 0)"/><rect class="cls-2" x="26.5" y="38.79" width="52.5" height="58.5"/><g class="cls-5"><path class="cls-6" d="M96,52.15l3.63-18.51L105.58,47l6.12-13.38L115,52.15h-2.67l-1.66-10.39-5.1,11.18-5-11.2L98.73,52.15Z" transform="translate(-0.01 0)"/><path class="cls-6" d="M117.74,43.46a8.42,8.42,0,0,1,2.67-6.24,8.76,8.76,0,0,1,6.38-2.61,9,9,0,0,1,9,9,8.44,8.44,0,0,1-2.65,6.3,9.09,9.09,0,0,1-12.42.29A8.45,8.45,0,0,1,117.74,43.46Zm2.62,0a6.22,6.22,0,0,0,1.92,4.69,6.36,6.36,0,0,0,9,0,6.37,6.37,0,0,0,1.86-4.62,6.29,6.29,0,0,0-1.84-4.62,6.42,6.42,0,0,0-9.06,0A6.21,6.21,0,0,0,120.36,43.5Z" transform="translate(-0.01 0)"/><path class="cls-6" d="M139,52.15V33.76L151.57,46.9v-12h2.6V53.2L141.61,40.09V52.15Z" transform="translate(-0.01 0)"/></g><g class="cls-5"><path class="cls-7" d="M100.33,79.11q0,8.7,8.18,8.7a7.29,7.29,0,0,0,6.61-3.57h13q-3.94,13.08-19.71,13.08a25.74,25.74,0,0,1-8.84-1.45,19.7,19.7,0,0,1-6.88-4.12,18.57,18.57,0,0,1-4.43-6.4A21.31,21.31,0,0,1,86.72,77a23.56,23.56,0,0,1,1.49-8.59,18.06,18.06,0,0,1,4.24-6.51,18.7,18.7,0,0,1,6.65-4.12,25.09,25.09,0,0,1,8.81-1.45,24.58,24.58,0,0,1,8.7,1.45,17.38,17.38,0,0,1,6.54,4.2,18.07,18.07,0,0,1,4.09,6.73,26.64,26.64,0,0,1,1.42,9v1.42Zm15.76-7.81a8.11,8.11,0,0,0-2.75-4.54,8.53,8.53,0,0,0-10.15-.07,7.44,7.44,0,0,0-2.49,4.61Z" transform="translate(-0.01 0)"/></g><g class="cls-5"><g class="cls-5"><path class="cls-6" d="M133.12,79.92h5V82.1h-5Z" transform="translate(-0.01 0)"/><path class="cls-6" d="M149.8,69.31V86.53h-2.59V69.31Z" transform="translate(-0.01 0)"/><path class="cls-6" d="M153.34,86.53,157,68l5.91,13.38L169,68l3.25,18.51h-2.66l-1.66-10.39-5.1,11.18-5-11.2L156,86.53Z" transform="translate(-0.01 0)"/></g><g class="cls-5"><path class="cls-6" d="M178.5,79.54v7h-2.6V69.31h2.95a13.38,13.38,0,0,1,3.27.3,4.39,4.39,0,0,1,2,1.14,4.91,4.91,0,0,1,1.48,3.66A4.73,4.73,0,0,1,184,78.15a6.24,6.24,0,0,1-4.27,1.39Zm0-2.41h1q3.59,0,3.58-2.76t-3.69-2.66h-.86Z" transform="translate(-0.01 0)"/></g><g class="cls-5"><path class="cls-6" d="M197.09,82.35h-7.37l-1.92,4.18H185l8.52-18.3,8.22,18.3h-2.85ZM196,79.91l-2.56-5.86-2.67,5.86Z" transform="translate(-0.01 0)"/></g><g class="cls-5"><path class="cls-6" d="M215.81,70.24v3.07a7.24,7.24,0,0,0-4.66-1.88,6,6,0,0,0-4.48,1.91A6.42,6.42,0,0,0,204.84,78a6.28,6.28,0,0,0,1.83,4.57,6.06,6.06,0,0,0,4.49,1.86,5.47,5.47,0,0,0,2.33-.45,6.13,6.13,0,0,0,1.11-.6,13.18,13.18,0,0,0,1.21-.91v3.13a9.41,9.41,0,0,1-4.69,1.26,8.67,8.67,0,0,1-6.3-2.57,8.56,8.56,0,0,1-2.6-6.27,8.87,8.87,0,0,1,2.18-5.87A8.65,8.65,0,0,1,211.32,69,8.8,8.8,0,0,1,215.81,70.24Z" transform="translate(-0.01 0)"/><path class="cls-6" d="M223.84,71.75V86.53h-2.6V71.75h-4V69.31h10.51v2.44Z" transform="translate(-0.01 0)"/></g></g><g class="cls-5"><path class="cls-1" d="M100.8,102.38l-1,.6a1.73,1.73,0,0,0-.54-.64,1.22,1.22,0,0,0-.69-.18,1.23,1.23,0,0,0-.86.3.92.92,0,0,0-.35.73c0,.4.3.73.9,1l.83.33a3.72,3.72,0,0,1,1.48,1,2.24,2.24,0,0,1,.46,1.44,2.53,2.53,0,0,1-.76,1.89,2.62,2.62,0,0,1-1.9.75,2.55,2.55,0,0,1-1.79-.64,2.89,2.89,0,0,1-.86-1.8l1.27-.28a2,2,0,0,0,.3,1,1.28,1.28,0,0,0,1.12.54,1.3,1.3,0,0,0,1-.39,1.34,1.34,0,0,0,.39-1,1.29,1.29,0,0,0-.07-.45,1.07,1.07,0,0,0-.21-.37,1.39,1.39,0,0,0-.36-.31,3.36,3.36,0,0,0-.54-.29l-.8-.33c-1.13-.48-1.7-1.18-1.7-2.1a2,2,0,0,1,.71-1.56,2.61,2.61,0,0,1,1.78-.64A2.49,2.49,0,0,1,100.8,102.38Z" transform="translate(-0.01 0)"/><path class="cls-1" d="M106,101.15v8.28h-1.25v-8.28Z" transform="translate(-0.01 0)"/><path class="cls-1" d="M109.87,109.43l1.74-8.91,2.85,6.44,2.94-6.44,1.57,8.91h-1.28l-.8-5-2.46,5.38-2.38-5.39-.89,5Z" transform="translate(-0.01 0)"/><path class="cls-1" d="M124.17,101.15v5a2.77,2.77,0,0,0,.35,1.56,1.88,1.88,0,0,0,2.94,0,2.73,2.73,0,0,0,.34-1.56v-5h1.26v5.33a3,3,0,0,1-3.07,3.1,3,3,0,0,1-3.07-3.1v-5.33Z" transform="translate(-0.01 0)"/><path class="cls-1" d="M134.49,101.15v7.11h2.43v1.17h-3.68v-8.28Z" transform="translate(-0.01 0)"/><path class="cls-1" d="M145.64,107.42h-3.55l-.92,2h-1.35l4.1-8.81,4,8.81h-1.37Zm-.51-1.18-1.23-2.81-1.29,2.81Z" transform="translate(-0.01 0)"/><path class="cls-1" d="M152.93,102.32v7.11h-1.25v-7.11h-1.9v-1.17h5.05v1.17Z" transform="translate(-0.01 0)"/><path class="cls-1" d="M157.47,105.25a4.08,4.08,0,0,1,1.28-3,4.25,4.25,0,0,1,3.07-1.25,4.34,4.34,0,0,1,4.31,4.31,4,4,0,0,1-1.28,3,4.37,4.37,0,0,1-6,.14A4.06,4.06,0,0,1,157.47,105.25Zm1.26,0a3,3,0,0,0,.93,2.26,2.94,2.94,0,0,0,2.11.88,3,3,0,0,0,2.2-.9,3,3,0,0,0,.9-2.22,3,3,0,0,0-.88-2.22,3.08,3.08,0,0,0-4.37,0A3,3,0,0,0,158.73,105.27Z" transform="translate(-0.01 0)"/><path class="cls-1" d="M172.71,105.9l2.56,3.53h-1.53L171.38,106h-.23v3.39H169.9v-8.28h1.47a3.68,3.68,0,0,1,2.37.61,2.26,2.26,0,0,1,.8,1.82,2.33,2.33,0,0,1-.5,1.51A2.28,2.28,0,0,1,172.71,105.9Zm-1.56-1h.4c1.18,0,1.78-.45,1.78-1.36s-.58-1.27-1.73-1.27h-.45Z" transform="translate(-0.01 0)"/><path class="cls-1" d="M185.56,101.15v8.28h-1.25v-8.28Z" transform="translate(-0.01 0)"/><path class="cls-1" d="M189.46,109.43l1.74-8.91L194,107l3-6.44,1.57,8.91h-1.29l-.8-5L194,109.81l-2.38-5.39-.89,5Z" transform="translate(-0.01 0)"/><path class="cls-1" d="M203.76,106.07v3.36h-1.25v-8.28h1.42a6.3,6.3,0,0,1,1.57.14,2.09,2.09,0,0,1,.94.55,2.34,2.34,0,0,1,.72,1.76,2.26,2.26,0,0,1-.77,1.8,3,3,0,0,1-2,.67Zm0-1.16h.47c1.15,0,1.72-.45,1.72-1.33s-.59-1.28-1.78-1.28h-.41Z" transform="translate(-0.01 0)"/><path class="cls-1" d="M214.9,107.42h-3.54l-.93,2h-1.34l4.1-8.81,3.95,8.81h-1.37Zm-.51-1.18-1.23-2.81-1.28,2.81Z" transform="translate(-0.01 0)"/><path class="cls-1" d="M226.11,101.59v1.48a3.49,3.49,0,0,0-2.24-.91,2.86,2.86,0,0,0-2.15.92,3.08,3.08,0,0,0-.88,2.23,3,3,0,0,0,.88,2.2,2.88,2.88,0,0,0,2.15.9,2.75,2.75,0,0,0,1.13-.21,4.77,4.77,0,0,0,.53-.29c.18-.13.38-.27.58-.44V109a4.45,4.45,0,0,1-2.25.61,4.25,4.25,0,0,1-4.28-4.26,4.25,4.25,0,0,1,1-2.82A4.18,4.18,0,0,1,224,101,4.26,4.26,0,0,1,226.11,101.59Z" transform="translate(-0.01 0)"/><path class="cls-1" d="M232.17,102.32v7.11h-1.25v-7.11H229v-1.17h5v1.17Z" transform="translate(-0.01 0)"/></g></svg>